HIERARCHY
ROOT Hips
{
	OFFSET 0.053599 88.859886 3.107447
	CHANNELS 6 Xposition Yposition Zposition Zrotation Yrotation Xrotation 
	JOINT Spine
	{
		OFFSET -0.000000 8.814246 -2.080107
		CHANNELS 3 Zrotation Yrotation Xrotation
		JOINT Spine1
		{
			OFFSET 0.000000 8.844141 0.000000
			CHANNELS 3 Zrotation Yrotation Xrotation
			JOINT Spine2
			{
				OFFSET -0.000000 11.682268 0.000000
				CHANNELS 3 Zrotation Yrotation Xrotation
				JOINT Spine3
				{
					OFFSET 0.000000 11.746700 0.000000
					CHANNELS 3 Zrotation Yrotation Xrotation
					JOINT Neck
					{
						OFFSET -0.000000 17.658264 -0.000000
						CHANNELS 3 Zrotation Yrotation Xrotation
						JOINT Neck1
						{
							OFFSET -0.000000 5.101515 -0.000000
							CHANNELS 3 Zrotation Yrotation Xrotation
							JOINT Head
							{
								OFFSET 0.000000 5.101515 0.000000
								CHANNELS 3 Zrotation Yrotation Xrotation
								JOINT HeadEnd
								{
									OFFSET 0.000000 11.655085 0.000000
									CHANNELS 3 Zrotation Yrotation Xrotation
									End Site
									{
										OFFSET 0.000000 0.000000 0.000000
									}
								}
							}
						}
					}
					JOINT RightShoulder
					{
						OFFSET -2.625389 11.175210 0.000000
						CHANNELS 3 Zrotation Yrotation Xrotation
						JOINT RightArm
						{
							OFFSET -0.000000 10.434715 -0.000000
							CHANNELS 3 Zrotation Yrotation Xrotation
							JOINT RightForeArm
							{
								OFFSET -0.000000 29.628420 0.000000
								CHANNELS 3 Zrotation Yrotation Xrotation
								JOINT RightHand
								{
									OFFSET -0.000000 22.857611 0.000000
									CHANNELS 3 Zrotation Yrotation Xrotation
									JOINT RightHandThumb1
									{
										OFFSET -2.867323 3.959563 2.944291
										CHANNELS 3 Zrotation Yrotation Xrotation
										JOINT RightHandThumb2
										{
											OFFSET 0.000000 3.350399 0.000000
											CHANNELS 3 Zrotation Yrotation Xrotation
											JOINT RightHandThumb3
											{
												OFFSET 0.000000 3.756509 -0.000000
												CHANNELS 3 Zrotation Yrotation Xrotation
												JOINT RightHandThumb4
												{
													OFFSET 0.000000 3.147345 0.000000
													CHANNELS 3 Zrotation Yrotation Xrotation
													End Site
													{
														OFFSET 0.000000 0.000000 0.000000
													}
												}
											}
										}
									}
									JOINT RightHandIndex1
									{
										OFFSET -0.086752 10.030893 2.345280
										CHANNELS 3 Zrotation Yrotation Xrotation
										JOINT RightHandIndex2
										{
											OFFSET -0.000000 4.061090 0.000000
											CHANNELS 3 Zrotation Yrotation Xrotation
											JOINT RightHandIndex3
											{
												OFFSET -0.000000 3.248873 0.000000
												CHANNELS 3 Zrotation Yrotation Xrotation
												JOINT RightHandIndex4
												{
													OFFSET 0.000000 2.639709 -0.000000
													CHANNELS 3 Zrotation Yrotation Xrotation
													End Site
													{
														OFFSET 0.000000 0.000000 0.000000
													}
												}
											}
										}
									}
									JOINT RightHandMiddle1
									{
										OFFSET 0.104102 9.502952 0.006768
										CHANNELS 3 Zrotation Yrotation Xrotation
										JOINT RightHandMiddle2
										{
											OFFSET 0.000000 4.568727 0.000000
											CHANNELS 3 Zrotation Yrotation Xrotation
											JOINT RightHandMiddle3
											{
												OFFSET 0.000000 3.654981 -0.000000
												CHANNELS 3 Zrotation Yrotation Xrotation
												JOINT RightHandMiddle4
												{
													OFFSET -0.000000 2.741236 -0.000000
													CHANNELS 3 Zrotation Yrotation Xrotation
													End Site
													{
														OFFSET 0.000000 0.000000 0.000000
													}
												}
											}
										}
									}
									JOINT RightHandRing1
									{
										OFFSET 0.086752 8.921708 -2.267442
										CHANNELS 3 Zrotation Yrotation Xrotation
										JOINT RightHandRing2
										{
											OFFSET -0.000000 4.061090 0.000000
											CHANNELS 3 Zrotation Yrotation Xrotation
											JOINT RightHandRing3
											{
												OFFSET 0.000000 3.654981 -0.000000
												CHANNELS 3 Zrotation Yrotation Xrotation
												JOINT RightHandRing4
												{
													OFFSET 0.000000 2.741236 -0.000000
													CHANNELS 3 Zrotation Yrotation Xrotation
													End Site
													{
														OFFSET 0.000000 0.000000 0.000000
													}
												}
											}
										}
									}
									JOINT RightHandPinky1
									{
										OFFSET -0.173504 7.976997 -4.467199
										CHANNELS 3 Zrotation Yrotation Xrotation
										JOINT RightHandPinky2
										{
											OFFSET 0.000000 3.350399 -0.000000
											CHANNELS 3 Zrotation Yrotation Xrotation
											JOINT RightHandPinky3
											{
												OFFSET -0.000000 2.842763 0.000000
												CHANNELS 3 Zrotation Yrotation Xrotation
												JOINT RightHandPinky4
												{
													OFFSET -0.000000 2.639709 0.000000
													CHANNELS 3 Zrotation Yrotation Xrotation
													End Site
													{
														OFFSET 0.000000 0.000000 0.000000
													}
												}
											}
										}
									}
									JOINT RightForeArmEnd
									{
										OFFSET 0.000000 0.000000 0.000000
										CHANNELS 3 Zrotation Yrotation Xrotation
										End Site
										{
											OFFSET 0.000000 0.000000 0.000000
										}
									}
								}
								JOINT RightArmEnd
								{
									OFFSET 0.000000 0.000000 0.000000
									CHANNELS 3 Zrotation Yrotation Xrotation
									End Site
									{
										OFFSET 0.000000 0.000000 0.000000
									}
								}
							}
						}
					}
					JOINT LeftShoulder
					{
						OFFSET 2.625389 11.175210 0.000000
						CHANNELS 3 Zrotation Yrotation Xrotation
						JOINT LeftArm
						{
							OFFSET 0.000000 10.813635 -0.000000
							CHANNELS 3 Zrotation Yrotation Xrotation
							JOINT LeftForeArm
							{
								OFFSET 0.000000 28.724781 0.000000
								CHANNELS 3 Zrotation Yrotation Xrotation
								JOINT LeftHand
								{
									OFFSET 0.644384 25.716167 -0.328871
									CHANNELS 3 Zrotation Yrotation Xrotation
									JOINT LeftHandThumb1
									{
										OFFSET 2.867323 3.959563 2.944291
										CHANNELS 3 Zrotation Yrotation Xrotation
										JOINT LeftHandThumb2
										{
											OFFSET 0.000000 3.350399 0.000000
											CHANNELS 3 Zrotation Yrotation Xrotation
											JOINT LeftHandThumb3
											{
												OFFSET -0.000000 3.756509 0.000000
												CHANNELS 3 Zrotation Yrotation Xrotation
												JOINT LeftHandThumb4
												{
													OFFSET -0.000000 3.100000 0.000000
													CHANNELS 3 Zrotation Yrotation Xrotation
													End Site
													{
														OFFSET 0.000000 0.000000 0.000000
													}
												}
											}
										}
									}
									JOINT LeftHandIndex1
									{
										OFFSET 0.086752 10.030893 2.345280
										CHANNELS 3 Zrotation Yrotation Xrotation
										JOINT LeftHandIndex2
										{
											OFFSET -0.000000 4.061090 -0.000000
											CHANNELS 3 Zrotation Yrotation Xrotation
											JOINT LeftHandIndex3
											{
												OFFSET 0.000000 3.248873 -0.000000
												CHANNELS 3 Zrotation Yrotation Xrotation
												JOINT LeftHandIndex4
												{
													OFFSET 0.000000 2.639709 -0.000000
													CHANNELS 3 Zrotation Yrotation Xrotation
													End Site
													{
														OFFSET 0.000000 0.000000 0.000000
													}
												}
											}
										}
									}
									JOINT LeftHandMiddle1
									{
										OFFSET -0.104102 9.502952 0.006768
										CHANNELS 3 Zrotation Yrotation Xrotation
										JOINT LeftHandMiddle2
										{
											OFFSET -0.000000 4.568727 -0.000000
											CHANNELS 3 Zrotation Yrotation Xrotation
											JOINT LeftHandMiddle3
											{
												OFFSET 0.000000 3.654981 0.000000
												CHANNELS 3 Zrotation Yrotation Xrotation
												JOINT LeftHandMiddle4
												{
													OFFSET 0.000000 2.741236 -0.000000
													CHANNELS 3 Zrotation Yrotation Xrotation
													End Site
													{
														OFFSET 0.000000 0.000000 0.000000
													}
												}
											}
										}
									}
									JOINT LeftHandRing1
									{
										OFFSET -0.086752 8.921708 -2.267442
										CHANNELS 3 Zrotation Yrotation Xrotation
										JOINT LeftHandRing2
										{
											OFFSET 0.000000 4.061090 0.000000
											CHANNELS 3 Zrotation Yrotation Xrotation
											JOINT LeftHandRing3
											{
												OFFSET 0.000000 3.654981 0.000000
												CHANNELS 3 Zrotation Yrotation Xrotation
												JOINT LeftHandRing4
												{
													OFFSET 0.000000 2.741236 0.000000
													CHANNELS 3 Zrotation Yrotation Xrotation
													End Site
													{
														OFFSET 0.000000 0.000000 0.000000
													}
												}
											}
										}
									}
									JOINT LeftHandPinky1
									{
										OFFSET 0.173504 7.976997 -4.467199
										CHANNELS 3 Zrotation Yrotation Xrotation
										JOINT LeftHandPinky2
										{
											OFFSET -0.000000 3.350399 -0.000000
											CHANNELS 3 Zrotation Yrotation Xrotation
											JOINT LeftHandPinky3
											{
												OFFSET 0.000000 2.842763 0.000000
												CHANNELS 3 Zrotation Yrotation Xrotation
												JOINT LeftHandPinky4
												{
													OFFSET -0.000000 2.639709 -0.000000
													CHANNELS 3 Zrotation Yrotation Xrotation
													End Site
													{
														OFFSET 0.000000 0.000000 0.000000
													}
												}
											}
										}
									}
									JOINT LeftForeArmEnd
									{
										OFFSET 0.000000 0.000000 0.000000
										CHANNELS 3 Zrotation Yrotation Xrotation
										End Site
										{
											OFFSET 0.000000 0.000000 0.000000
										}
									}
								}
								JOINT LeftArmEnd
								{
									OFFSET 0.000000 0.000000 0.000000
									CHANNELS 3 Zrotation Yrotation Xrotation
									End Site
									{
										OFFSET 0.000000 0.000000 0.000000
									}
								}
							}
						}
					}
				}
			}
		}
	}
	JOINT RightUpLeg
	{
		OFFSET -11.289943 0.000000 0.000000
		CHANNELS 3 Zrotation Yrotation Xrotation
		JOINT RightLeg
		{
			OFFSET 0.000000 -38.200325 0.000000
			CHANNELS 3 Zrotation Yrotation Xrotation
			JOINT RightFoot
			{
				OFFSET -0.000000 -39.900856 -0.000000
				CHANNELS 3 Zrotation Yrotation Xrotation
				JOINT RightToeBase
				{
					OFFSET 0.000000 0.000000 15.261641
					CHANNELS 3 Zrotation Yrotation Xrotation
					JOINT RightToeBaseEnd
					{
						OFFSET 0.000000 0.000000 7.370709
						CHANNELS 3 Zrotation Yrotation Xrotation
						End Site
						{
							OFFSET 0.000000 0.000000 0.000000
						}
					}
				}
				JOINT RightLegEnd
				{
					OFFSET 0.000000 0.000000 0.000000
					CHANNELS 3 Zrotation Yrotation Xrotation
					End Site
					{
						OFFSET 0.000000 0.000000 0.000000
					}
				}
			}
			JOINT RightUpLegEnd
			{
				OFFSET 0.000000 0.000000 0.000000
				CHANNELS 3 Zrotation Yrotation Xrotation
				End Site
				{
					OFFSET 0.000000 0.000000 0.000000
				}
			}
		}
	}
	JOINT LeftUpLeg
	{
		OFFSET 11.315661 -0.000000 0.000000
		CHANNELS 3 Zrotation Yrotation Xrotation
		JOINT LeftLeg
		{
			OFFSET -0.000000 -38.200325 -0.000000
			CHANNELS 3 Zrotation Yrotation Xrotation
			JOINT LeftFoot
			{
				OFFSET 0.000000 -39.900856 -0.000000
				CHANNELS 3 Zrotation Yrotation Xrotation
				JOINT LeftToeBase
				{
					OFFSET -0.000000 -0.000000 15.261641
					CHANNELS 3 Zrotation Yrotation Xrotation
					JOINT LeftToeBaseEnd
					{
						OFFSET 0.000000 -0.000000 7.539996
						CHANNELS 3 Zrotation Yrotation Xrotation
						End Site
						{
							OFFSET 0.000000 0.000000 0.000000
						}
					}
				}
				JOINT LeftLegEnd
				{
					OFFSET 0.000000 0.000000 0.000000
					CHANNELS 3 Zrotation Yrotation Xrotation
					End Site
					{
						OFFSET 0.000000 0.000000 0.000000
					}
				}
			}
			JOINT LeftUpLegEnd
			{
				OFFSET 0.000000 0.000000 0.000000
				CHANNELS 3 Zrotation Yrotation Xrotation
				End Site
				{
					OFFSET 0.000000 0.000000 0.000000
				}
			}
		}
	}
}
MOTION
Frames: 4
Frame Time: 0.016667
0.123628 88.871750 2.660660 0.095757 0.025564 -11.332411 0.966911 -0.059697 7.071730 -0.899303 0.371632 3.049528 0.085978 -0.802828 5.202989 -1.294875 0.159227 4.931358 2.920041 -0.406350 5.008916 0.443453 0.794395 -3.446035 -0.033393 -0.806265 -19.467062 0.000000 0.000000 0.000000 92.566551 -0.394202 10.126585 68.669121 -22.479488 3.461950 0.167609 17.260368 31.980040 -17.012108 0.578770 -2.879060 15.528265 31.643011 66.455429 -3.404155 -3.953002 -7.459347 -2.381443 -2.620762 -5.013081 0.000000 0.000000 0.000000 -23.402308 -4.762212 12.985854 0.417549 0.525347 0.336743 0.187399 0.079234 0.354386 0.000000 0.000000 0.000000 -21.942249 0.390332 8.117447 -0.235708 0.535223 0.096229 0.292249 0.029893 0.091890 0.000000 0.000000 0.000000 -19.247087 7.838843 2.456193 0.505112 -1.022929 -0.250726 0.396490 -0.044482 -0.138230 0.000000 0.000000 0.000000 -17.369804 15.859374 -4.146519 1.018721 -1.985181 -0.740514 0.860826 -0.023050 -0.573407 0.000000 0.000000 0.000000 0.000000 0.000000 0.000000 0.000000 0.000000 0.000000 -90.543472 0.296080 5.953078 -70.177200 16.696251 -3.726608 0.005154 -10.902812 59.977726 26.584009 -1.895997 -6.098783 -14.593562 -32.035427 67.554184 2.103912 1.943173 -4.011800 1.388099 1.353988 -2.767477 0.000000 0.000000 0.000000 27.251972 -13.423078 19.137564 -0.058261 0.537785 -0.267661 -0.129409 0.060027 -0.286843 0.000000 0.000000 0.000000 25.966137 -8.027040 12.689267 -0.256966 0.516573 -0.126215 -0.333267 0.032303 -0.094720 0.000000 0.000000 0.000000 21.535421 0.630705 4.790199 -1.534916 -1.044219 0.280843 -1.735839 -0.039996 0.201224 0.000000 0.000000 0.000000 15.035055 10.717028 -3.734712 -3.361401 -1.973116 0.967041 -3.116613 0.047303 0.898154 0.000000 0.000000 0.000000 0.000000 0.000000 0.000000 0.000000 0.000000 0.000000 -1.267780 -10.387295 15.572659 -0.066220 -0.719755 4.682027 -2.866107 -8.172554 17.528135 -0.909909 0.773401 -18.457863 0.000000 0.000000 0.000000 0.000000 0.000000 0.000000 0.000000 0.000000 0.000000 -1.455112 -5.620943 10.293848 0.057589 0.323730 9.351747 3.909265 -0.919504 17.075132 0.241596 -0.479251 -20.395075 0.000000 0.000000 0.000000 0.000000 0.000000 0.000000 0.000000 0.000000 0.000000 
0.137534 88.869957 2.682869 0.112049 -0.000690 -11.364669 0.960612 -0.062941 7.077198 -0.926675 0.373042 3.049190 0.091183 -0.833662 5.239894 -1.303612 0.144816 4.923849 2.923841 -0.422597 4.980873 0.447411 0.774027 -3.455599 -0.027890 -0.815728 -19.420898 0.000000 0.000000 0.000000 92.608742 -0.414880 10.121326 68.598488 -22.429811 3.526585 0.179867 17.356329 32.122906 -16.506166 1.158822 -3.229174 15.638390 31.596672 66.326523 -3.570621 -4.162982 -7.836199 -2.500851 -2.765029 -5.280140 0.000000 0.000000 0.000000 -22.366346 -4.932532 12.724426 0.358739 0.529387 0.331153 0.122096 0.083877 0.351776 0.000000 0.000000 0.000000 -20.877932 0.221792 7.959845 -0.305391 0.537331 0.094899 0.232354 0.031555 0.091118 0.000000 0.000000 0.000000 -18.044333 7.658797 2.475146 0.450842 -1.024489 -0.249616 0.344093 -0.045497 -0.136867 0.000000 0.000000 0.000000 -16.101536 15.694927 -4.005329 1.009517 -1.990776 -0.728713 0.840307 -0.029454 -0.564415 0.000000 0.000000 0.000000 0.000000 0.000000 0.000000 0.000000 0.000000 0.000000 -90.548798 0.298900 5.971283 -70.196419 16.682138 -3.839071 -0.013603 -10.855673 60.175419 26.158257 -2.593689 -6.317323 -14.665049 -32.004665 67.475967 2.211812 2.081565 -4.249872 1.466252 1.450176 -2.932079 0.000000 0.000000 0.000000 26.609291 -13.326797 18.911949 -0.014088 0.538500 -0.271132 -0.091323 0.061352 -0.289553 0.000000 0.000000 0.000000 25.285545 -7.923885 12.520007 -0.226796 0.516688 -0.126990 -0.293267 0.032325 -0.096056 0.000000 0.000000 0.000000 20.705999 0.767078 4.729285 -1.533855 -1.044432 0.285378 -1.731748 -0.039916 0.204021 0.000000 0.000000 0.000000 14.112155 10.872381 -3.728757 -3.415167 -1.973659 0.979950 -3.171073 0.046845 0.913414 0.000000 0.000000 0.000000 0.000000 0.000000 0.000000 0.000000 0.000000 0.000000 -1.315922 -10.359464 15.595746 -0.067079 -0.721320 4.728324 -2.843461 -8.190615 17.515759 -0.912942 0.775822 -18.457146 0.000000 0.000000 0.000000 0.000000 0.000000 0.000000 0.000000 0.000000 0.000000 -1.506485 -5.615967 10.306694 0.057453 0.322594 9.384052 3.925986 -0.911014 17.064135 0.235588 -0.478182 -20.404650 0.000000 0.000000 0.000000 0.000000 0.000000 0.000000 0.000000 0.000000 0.000000 
0.150326 88.867584 2.706797 0.125201 -0.028070 -11.398293 0.955882 -0.065486 7.083277 -0.955780 0.374950 3.050613 0.101544 -0.867117 5.270209 -1.313112 0.130653 4.921071 2.912203 -0.442552 4.937817 0.451308 0.745546 -3.467476 -0.018947 -0.826317 -19.379858 0.000000 0.000000 0.000000 92.639580 -0.434108 10.127222 68.540154 -22.362736 3.605953 0.194287 17.446699 32.260406 -15.930742 1.939875 -3.604945 15.763994 31.544268 66.180916 -3.760587 -4.400539 -8.264029 -2.636525 -2.928443 -5.583483 0.000000 0.000000 0.000000 -21.203074 -5.126358 12.450107 0.318646 0.534866 0.325619 0.074028 0.089633 0.349171 0.000000 0.000000 0.000000 -19.679499 0.029265 7.805684 -0.356667 0.540108 0.093529 0.194023 0.033625 0.090395 0.000000 0.000000 0.000000 -16.672850 7.452031 2.520075 0.415070 -1.026965 -0.248220 0.313725 -0.046926 -0.135385 0.000000 0.000000 0.000000 -14.635541 15.500659 -3.827763 1.024091 -1.999155 -0.714918 0.843606 -0.037646 -0.554170 0.000000 0.000000 0.000000 0.000000 0.000000 0.000000 0.000000 0.000000 0.000000 -90.538635 0.303431 5.991568 -70.220352 16.676212 -3.938347 -0.030767 -10.812256 60.385281 25.616003 -3.452973 -6.643362 -14.754189 -31.964535 67.374901 2.352303 2.253647 -4.555877 1.566282 1.569453 -3.140424 0.000000 0.000000 0.000000 25.778706 -13.204515 18.652802 0.041041 0.539509 -0.279019 -0.041766 0.063122 -0.296415 0.000000 0.000000 0.000000 24.412420 -7.790486 12.323137 -0.188019 0.516986 -0.129441 -0.242865 0.032518 -0.098588 0.000000 0.000000 0.000000 19.637106 0.942742 4.658835 -1.534253 -1.044877 0.291979 -1.729966 -0.039997 0.208334 0.000000 0.000000 0.000000 12.938133 11.067664 -3.722345 -3.480290 -1.975091 0.999924 -3.235284 0.045858 0.935364 0.000000 0.000000 0.000000 0.000000 0.000000 0.000000 0.000000 0.000000 0.000000 -1.358869 -10.327447 15.620683 -0.068112 -0.722712 4.775803 -2.820241 -8.216058 17.507578 -0.916723 0.778952 -18.457579 0.000000 0.000000 0.000000 0.000000 0.000000 0.000000 0.000000 0.000000 0.000000 -1.559214 -5.617324 10.320598 0.057166 0.321329 9.423298 3.944840 -0.907275 17.046429 0.229115 -0.476938 -20.411367 0.000000 0.000000 0.000000 0.000000 0.000000 0.000000 0.000000 0.000000 0.000000 
0.160331 88.864235 2.732474 0.132990 -0.058306 -11.436945 0.952565 -0.066679 7.093283 -0.988321 0.378499 3.051895 0.115925 -0.901210 5.297418 -1.320426 0.117018 4.923855 2.893133 -0.471614 4.890145 0.455609 0.706636 -3.474487 -0.005903 -0.838063 -19.344980 0.000000 0.000000 0.000000 92.659752 -0.451438 10.142564 68.488457 -22.304054 3.706103 0.210453 17.525017 32.363644 -15.292902 2.883997 -4.010268 15.901221 31.487471 66.023811 -3.966807 -4.657453 -8.727195 -2.783415 -3.105409 -5.911760 0.000000 0.000000 0.000000 -19.967657 -5.331728 12.165694 0.306174 0.539965 0.322841 0.053890 0.094787 0.348991 0.000000 0.000000 0.000000 -18.408726 -0.176476 7.652166 -0.378381 0.542827 0.093322 0.186655 0.035461 0.090629 0.000000 0.000000 0.000000 -15.218730 7.229036 2.580322 0.408967 -1.029323 -0.247935 0.316869 -0.048067 -0.134860 0.000000 0.000000 0.000000 -13.072912 15.284286 -3.628988 1.070325 -2.006919 -0.703613 0.880570 -0.045064 -0.546079 0.000000 0.000000 0.000000 0.000000 0.000000 0.000000 0.000000 0.000000 0.000000 -90.511337 0.309465 6.012162 -70.247963 16.688251 -4.030049 -0.047290 -10.781458 60.604710 24.900858 -4.524005 -7.113418 -14.869988 -31.912937 67.242683 2.533573 2.476311 -4.954999 1.695269 1.723003 -3.410844 0.000000 0.000000 0.000000 24.713459 -13.050728 18.349745 0.091097 0.539278 -0.295091 0.005019 0.063781 -0.310961 0.000000 0.000000 0.000000 23.304548 -7.621204 12.090184 -0.157031 0.516816 -0.134996 -0.199542 0.032327 -0.103564 0.000000 0.000000 0.000000 18.297127 1.163874 4.571357 -1.556332 -1.044750 0.302541 -1.750696 -0.039594 0.215427 0.000000 0.000000 0.000000 11.494799 11.305844 -3.717500 -3.576123 -1.974622 1.031226 -3.327979 0.046671 0.967623 0.000000 0.000000 0.000000 0.000000 0.000000 0.000000 0.000000 0.000000 0.000000 -1.396967 -10.295402 15.651473 -0.069384 -0.724082 4.825185 -2.793342 -8.249226 17.503962 -0.920561 0.783285 -18.459730 0.000000 0.000000 0.000000 0.000000 0.000000 0.000000 0.000000 0.000000 0.000000 -1.609995 -5.624259 10.335806 0.056608 0.320114 9.470031 3.967369 -0.905514 17.023161 0.223045 -0.475385 -20.416506 0.000000 0.000000 0.000000 0.000000 0.000000 0.000000 0.000000 0.000000 0.000000 
